<?xml version="1.0" standalone="no"?>
<!DOCTYPE svg PUBLIC "-//W3C//DTD SVG 20010904//EN"
 "http://www.w3.org/TR/2001/REC-SVG-20010904/DTD/svg10.dtd">
<svg version="1.0" xmlns="http://www.w3.org/2000/svg"
 width="1037.000000pt" height="1024.000000pt" viewBox="0 0 1037.000000 1024.000000"
 preserveAspectRatio="xMidYMid meet">
<metadata>
Created by potrace 1.16, written by Peter Selinger 2001-2019
</metadata>
<g transform="translate(0.000000,1024.000000) scale(0.100000,-0.100000)"
fill="#000000" stroke="none">
<path d="M4830 7268 c-19 -5 -44 -11 -55 -12 -11 -2 -19 -8 -18 -14 2 -7 -4
-9 -14 -5 -12 5 -15 2 -10 -10 4 -11 2 -14 -8 -11 -9 4 -16 -3 -21 -20 -3 -14
-10 -23 -15 -20 -5 3 -9 -2 -9 -10 0 -9 -9 -25 -20 -36 -11 -11 -20 -24 -20
-29 0 -5 -4 -11 -10 -13 -5 -1 -41 -50 -79 -108 -54 -80 -67 -108 -59 -118 6
-7 7 -12 2 -11 -21 4 -35 -2 -29 -11 4 -6 11 -7 17 -4 7 5 8 2 4 -5 -5 -7 -10
-10 -13 -7 -9 9 -44 -14 -38 -25 4 -5 12 -6 18 -2 7 3 4 -3 -7 -15 -18 -21
-22 -21 -434 -22 -229 0 -417 -2 -419 -4 -2 -2 -4 -223 -4 -492 0 -269 -4
-480 -8 -469 -5 11 -6 39 -3 62 4 37 2 41 -14 37 -17 -5 -19 1 -19 58 0 52 3
63 18 66 9 2 15 8 11 13 -4 6 -11 6 -20 -2 -12 -10 -14 45 -14 385 l0 396 438
0 438 0 67 99 c68 100 77 118 55 105 -8 -4 -10 -3 -5 2 5 5 14 9 20 9 11 0 66
73 67 89 0 4 -60 6 -132 2 -73 -3 -384 -5 -690 -6 l-558 0 -1 -747 c-1 -412
-5 -737 -9 -723 -4 14 -8 19 -9 13 -1 -7 -4 -13 -9 -13 -11 0 -15 1497 -3
1504 5 3 331 6 724 7 l714 0 22 29 c27 38 27 40 -9 40 -22 0 -28 4 -24 15 4 9
0 15 -10 15 -9 0 -16 -7 -16 -15 0 -8 -5 -15 -11 -15 -5 0 -7 5 -3 11 5 8 1 8
-14 0 -15 -8 -234 -11 -731 -11 -403 0 -712 -4 -715 -9 -3 -5 -6 -348 -6 -763
0 -659 -2 -755 -15 -755 -8 0 -15 4 -15 9 0 4 6 8 13 8 9 0 9 2 1 8 -7 4 -14
18 -17 32 -2 14 -5 -236 -6 -554 0 -319 3 -576 7 -570 9 9 104 154 185 281 36
55 51 71 66 68 18 -3 37 18 33 38 -1 4 2 7 8 7 5 0 10 6 10 13 0 6 -14 -4 -30
-23 -44 -53 -36 -28 22 63 68 109 81 122 152 157 72 36 99 37 151 5 73 -45 84
-47 133 -30 47 15 152 89 152 105 0 6 -78 10 -201 10 -131 0 -198 3 -194 10 3
6 1 10 -4 10 -6 0 -11 -4 -11 -9 0 -5 -36 -9 -80 -9 -64 -1 -80 2 -80 14 0 21
50 38 73 25 23 -15 23 10 0 31 -40 34 -61 28 -131 -39 -17 -17 -22 -16 -22 2
0 9 10 20 23 25 12 5 60 45 106 89 l83 79 -1 84 c-1 91 7 158 18 158 4 0 6
-24 3 -54 -2 -29 0 -62 6 -72 8 -14 10 -4 11 40 0 32 3 61 6 64 3 3 5 -38 5
-91 l0 -97 326 0 c214 0 323 -3 319 -10 -3 -5 -15 -10 -25 -10 -10 0 -21 -6
-23 -12 -4 -10 -6 -10 -6 0 -1 6 -6 12 -12 12 -7 0 -9 -11 -5 -27 3 -16 3 -22
0 -15 -5 10 -9 10 -20 1 -10 -8 -14 -8 -14 0 0 6 -4 11 -10 11 -5 0 -10 -6
-10 -14 0 -8 -6 -17 -12 -20 -10 -5 -10 -7 0 -12 6 -3 12 -13 12 -21 0 -12 -7
-14 -31 -9 -26 5 -30 3 -25 -10 4 -12 2 -15 -9 -10 -10 3 -15 -1 -15 -12 0
-10 -5 -23 -12 -30 -6 -6 -8 -15 -4 -19 8 -8 56 40 56 57 0 5 5 10 10 10 6 0
10 -5 10 -11 0 -8 6 -7 18 2 14 11 14 10 -2 -8 -10 -13 -22 -20 -26 -18 -4 3
-11 -2 -14 -11 -9 -23 -8 -26 7 -18 6 4 3 -2 -7 -14 -11 -12 -16 -22 -12 -22
4 0 -2 -14 -14 -30 -12 -17 -25 -28 -30 -25 -4 3 -13 -2 -20 -10 -7 -8 -19
-15 -26 -15 -8 0 -14 -4 -14 -8 0 -5 -8 -18 -18 -30 -15 -17 -21 -19 -31 -9
-10 9 -11 9 -6 -3 6 -18 -25 -40 -73 -51 -26 -5 -32 -4 -28 6 5 15 -55 28 -65
13 -3 -4 -14 1 -24 12 -10 11 -14 20 -9 20 5 0 0 7 -10 15 -28 21 -96 20 -96
-1 0 -12 -3 -14 -13 -6 -17 15 -83 -27 -82 -52 0 -11 -8 -20 -19 -22 -10 -1
-24 -8 -30 -14 -6 -6 -6 -10 -1 -8 6 2 10 -1 10 -7 0 -5 -4 -10 -10 -10 -5 0
-10 -4 -10 -10 0 -5 5 -9 10 -7 6 1 -1 -7 -15 -19 -14 -11 -19 -17 -11 -13 17
8 14 4 -41 -78 -21 -32 -41 -58 -44 -58 -3 0 -3 4 1 9 3 5 1 12 -5 16 -6 3
-13 -2 -17 -12 -4 -10 -11 -22 -15 -28 -30 -35 -198 -296 -222 -343 -24 -48
-27 -65 -23 -110 3 -30 13 -64 21 -77 13 -20 16 -68 18 -272 l3 -248 25 -3
c14 -2 37 -15 51 -28 14 -13 41 -29 60 -34 41 -12 597 -12 604 0 3 4 15 6 27
2 16 -4 19 -2 13 9 -5 8 3 4 16 -7 13 -12 49 -28 79 -35 30 -7 57 -16 60 -19
13 -14 61 -40 75 -40 8 0 15 -4 15 -9 0 -23 32 -16 81 18 81 55 117 64 277 67
78 2 148 6 153 10 33 20 38 72 41 380 1 170 5 375 8 456 5 138 7 149 28 165
12 10 39 34 60 53 72 66 113 79 245 79 128 0 148 3 282 33 113 26 205 69 319
150 80 58 96 75 157 168 96 147 113 182 143 290 14 52 37 135 51 184 45 164
50 381 11 561 -9 43 -12 94 -9 131 7 75 -9 129 -51 168 -17 16 -24 26 -16 21
8 -4 -3 11 -25 34 -46 48 -62 56 -19 9 l29 -33 -32 29 c-18 17 -33 36 -33 43
0 19 -60 99 -72 95 -5 -1 -7 2 -3 8 3 6 -17 34 -46 63 -50 50 -51 51 -11 5 23
-26 42 -53 42 -60 0 -9 -3 -9 -9 1 -5 8 -17 16 -26 17 -8 1 -47 28 -85 58 -38
31 -75 55 -82 54 -7 -2 -12 2 -13 7 -1 16 -15 35 -26 35 -6 0 -7 -6 -3 -12 4
-8 3 -10 -2 -5 -5 5 -9 14 -9 20 0 7 -8 11 -18 11 -9 -1 -15 2 -12 6 5 8 -36
40 -75 59 l-25 12 24 -20 c13 -12 21 -21 19 -21 -3 0 -51 26 -109 58 -57 32
-130 71 -161 86 -32 16 -58 31 -58 35 0 4 -8 7 -17 8 -10 1 -43 10 -73 21 -77
27 -100 31 -140 20z m150 -88 c91 -39 120 -46 120 -31 0 16 127 -50 239 -125
135 -89 224 -174 121 -114 l-35 21 26 -23 c14 -13 41 -35 60 -51 32 -25 30
-25 -18 4 -51 31 -120 49 -108 29 3 -6 1 -10 -6 -10 -8 0 -8 -4 -1 -12 7 -9 5
-17 -6 -28 -9 -8 -19 -14 -22 -14 -3 1 -4 -3 -2 -9 2 -6 -5 -17 -15 -24 -15
-11 -15 -17 -5 -33 7 -11 10 -20 6 -20 -3 0 -86 52 -185 116 -232 149 -329
207 -370 224 -19 7 -36 15 -38 16 -5 4 60 106 74 117 17 13 87 -1 165 -33z
m-572 -89 c39 0 61 -5 57 -11 -3 -5 1 -10 9 -10 9 0 16 -4 16 -10 0 -14 -13
-13 -28 2 -9 9 -15 9 -24 0 -9 -9 -4 -13 20 -18 18 -4 32 -10 32 -15 0 -5 7
-6 15 -3 8 4 15 1 15 -5 0 -8 -164 -11 -585 -11 l-585 0 -5 -22 c-2 -13 -4
-297 -2 -633 1 -335 0 -628 -4 -650 l-6 -40 -3 45 c-2 25 -3 55 -3 68 -1 12
-6 22 -13 22 -7 0 -16 5 -20 11 -4 7 0 9 13 5 16 -5 20 -2 20 22 0 20 -5 28
-20 29 -12 1 -17 -3 -14 -12 8 -19 -4 -27 -20 -14 -15 13 -18 33 -4 24 5 -3
13 -1 16 5 4 6 1 9 -7 8 -9 -2 -13 10 -14 40 -1 35 2 42 17 42 11 0 19 -5 19
-11 0 -5 4 -8 9 -5 5 4 0 17 -12 31 -19 21 -23 22 -29 7 -6 -16 -7 -16 -7 0
-1 25 17 32 35 14 8 -9 21 -16 27 -16 8 0 7 3 -2 9 -7 5 -11 13 -7 19 3 5 -2
13 -11 16 -14 6 -15 9 -3 16 11 7 11 11 1 24 -8 9 -20 16 -28 16 -10 0 -13 9
-11 28 2 21 8 27 26 26 12 0 22 3 22 8 0 4 -8 8 -17 9 -16 0 -16 1 1 8 12 5
16 10 9 14 -6 4 -18 4 -26 1 -13 -4 -15 6 -15 63 0 37 -1 223 -1 413 -1 190
-1 366 0 392 l1 47 111 3 c106 3 900 2 1035 -1z m395 -115 c54 -29 66 -32 57
-17 -7 14 -7 22 2 27 6 4 8 3 5 -2 -3 -6 9 -10 26 -10 33 0 121 -49 229 -128
63 -45 79 -66 45 -59 -20 4 -20 3 3 -11 38 -23 11 -19 -35 5 -57 30 -35 13 88
-71 106 -72 159 -117 79 -66 -44 28 -83 27 -60 -2 11 -13 10 -14 -12 -7 -23 7
-24 7 -10 -11 8 -10 26 -29 40 -42 14 -13 -13 2 -60 33 -47 32 -150 98 -230
147 -217 135 -240 150 -240 155 0 2 9 2 19 -2 25 -8 32 22 12 53 -11 18 -16
20 -22 10 -7 -10 -9 -10 -9 1 0 8 -9 2 -21 -13 -22 -28 -27 -30 -47 -17 -11 7
-10 16 7 50 20 39 23 40 44 28 12 -8 53 -31 90 -51z m-91 -147 c29 -17 69 -40
88 -51 l35 -20 -25 21 c-14 11 -23 21 -20 22 3 0 16 2 28 5 40 7 241 -114 227
-136 -3 -5 0 -7 8 -4 9 3 16 -3 20 -15 4 -15 0 -21 -12 -21 -9 0 -21 4 -27 8
-15 14 -90 56 -79 45 6 -5 72 -52 148 -103 76 -51 140 -97 144 -102 3 -6 -13
2 -35 17 -42 28 -122 43 -122 23 0 -7 12 -25 28 -41 20 -23 8 -17 -53 24 -106
70 -481 306 -496 311 -7 2 -2 17 13 40 26 40 21 41 130 -23z m-307 42 c36 -1
38 -3 22 -15 -20 -15 -339 -27 -689 -26 -137 0 -208 -3 -208 -10 0 -5 -6 -10
-12 -10 -10 0 -12 -128 -10 -614 l2 -615 -31 -36 c-61 -69 -60 -83 -57 620 3
521 5 635 17 649 23 27 71 43 156 53 65 7 649 10 810 4z m172 -161 c40 -23 79
-38 85 -34 6 4 8 3 5 -4 -4 -5 14 -22 40 -38 27 -15 58 -34 71 -42 12 -8 22
-12 22 -9 0 3 -27 22 -61 42 -33 21 -58 39 -56 41 13 13 52 11 75 -3 108 -66
158 -105 159 -123 2 -23 -5 -25 -32 -7 -40 28 -80 50 -70 40 6 -5 74 -54 153
-107 78 -53 142 -99 142 -102 0 -2 -17 7 -38 20 -42 26 -95 26 -85 0 3 -9 -2
-14 -17 -14 -11 0 -18 -4 -15 -10 4 -6 -9 -11 -32 -12 l-38 -1 36 -4 c81 -9
154 -136 122 -213 -32 -78 -80 -105 -172 -96 -36 3 -77 9 -90 13 -16 4 -22 2
-18 -4 4 -6 -2 -22 -13 -36 -25 -31 -25 -46 -2 -64 9 -8 -3 -2 -28 12 -85 51
-225 114 -286 129 -71 18 -207 21 -252 5 -24 -8 -37 -7 -61 6 -40 20 -40 27 0
13 33 -11 109 4 109 22 0 6 5 10 11 10 17 0 39 26 42 52 2 13 14 28 26 34 17
9 19 13 9 18 -10 5 -10 7 0 12 6 3 10 10 6 15 -3 5 0 9 5 9 6 0 11 7 11 16 0
18 24 44 41 44 9 0 8 4 -1 15 -10 12 -10 15 3 15 13 0 26 17 23 30 0 3 9 16
22 30 12 13 22 28 22 32 0 5 3 7 8 5 9 -6 33 19 26 26 -3 3 4 8 16 12 17 5 19
10 9 21 -7 9 -8 14 -1 14 6 0 16 15 22 34 6 19 18 37 27 40 12 5 13 9 3 21 -9
11 -10 15 -1 15 7 0 19 7 27 15 13 12 10 18 -26 41 -25 17 -44 24 -48 18 -4
-6 -20 -32 -37 -57 -16 -26 -34 -47 -39 -47 -5 0 -2 7 5 16 14 17 40 80 41
102 2 19 16 15 95 -28z m-330 -78 l103 -7 -35 -58 c-19 -32 -33 -62 -30 -66 2
-5 -9 -29 -25 -55 -17 -26 -30 -49 -30 -51 0 -3 -34 -57 -75 -120 -41 -63 -82
-129 -90 -145 l-16 -31 46 -20 c49 -22 58 -30 23 -22 -22 5 -22 5 3 -20 20
-19 29 -42 38 -102 14 -84 46 -187 80 -254 17 -32 20 -46 11 -55 -8 -8 -97
-11 -296 -11 -242 0 -286 2 -294 15 -6 9 -9 189 -8 471 3 377 5 459 17 473 22
27 70 48 126 56 67 9 326 10 452 2z m1610 -659 c-5 -89 -7 -99 -26 -169 -14
-49 -14 -63 0 -44 8 11 9 9 3 -10 -9 -36 -27 -62 -19 -30 5 21 4 22 -5 7 -6
-9 -9 -25 -6 -35 3 -9 1 -24 -5 -32 -8 -12 -9 -9 -4 10 5 24 5 24 -10 -3 -9
-16 -14 -35 -11 -43 3 -8 2 -13 -3 -10 -5 4 -24 -20 -43 -51 -42 -73 -44 -77
-27 -68 12 7 12 5 1 -6 -7 -8 -18 -14 -24 -14 -6 0 -13 -6 -16 -14 -3 -9 0
-11 9 -6 8 4 -6 -13 -30 -38 -24 -25 -49 -45 -55 -44 -5 1 -10 -3 -11 -10 0
-6 -4 -15 -9 -20 -5 -5 -6 -3 -2 5 12 21 -2 14 -61 -32 -32 -25 -89 -60 -128
-79 -151 -75 -258 -95 -499 -96 l-181 -1 -22 -28 c-27 -32 -31 -17 -4 17 19
24 20 24 217 26 147 1 219 6 276 19 381 84 655 405 684 799 4 48 9 87 12 87 2
0 2 -39 -1 -87z m88 -118 c-9 -47 -29 -124 -46 -171 -16 -46 -27 -90 -23 -96
4 -7 3 -8 -4 -4 -7 4 -20 -10 -33 -36 -12 -24 -30 -55 -40 -70 -22 -30 -25
-53 -6 -42 10 6 -7 -16 -49 -63 -7 -6 -15 -9 -18 -5 -4 3 -4 -2 0 -13 6 -14 4
-17 -8 -12 -10 3 -24 -3 -35 -15 -17 -20 -17 -21 0 -15 11 4 16 3 12 -4 -4 -6
-13 -8 -20 -6 -7 3 -39 -16 -71 -42 -33 -26 -77 -58 -98 -71 -34 -20 -37 -25
-20 -30 17 -6 17 -8 -6 -15 -39 -14 -51 -14 -43 -2 4 6 1 8 -8 4 -99 -44 -199
-79 -262 -92 -60 -12 -278 -25 -418 -25 -4 0 -22 -22 -40 -50 -39 -60 -49 -66
-18 -10 45 80 36 77 246 83 161 4 202 8 288 31 219 57 411 189 541 372 91 127
165 325 182 481 4 44 8 57 10 36 2 -18 -4 -71 -13 -118z m-1410 28 c-15 -27
-57 -92 -93 -146 -36 -54 -65 -105 -65 -112 0 -8 -4 -12 -8 -10 -4 3 -9 -2
-12 -9 -3 -8 -1 -16 5 -18 7 -3 6 -11 -3 -26 -8 -12 -18 -21 -24 -19 -10 4
-83 -87 -134 -167 -47 -75 -125 -174 -143 -183 -9 -4 -40 -28 -68 -52 -28 -25
-56 -46 -63 -48 -62 -14 -134 -40 -144 -53 -15 -20 -10 -23 34 -23 21 1 32 -1
25 -4 -6 -2 -10 -9 -6 -14 3 -5 0 -9 -5 -9 -6 0 -10 -5 -8 -12 3 -15 -45 -18
-56 -3 -6 7 -10 6 -14 -2 -7 -18 -26 -16 -20 1 4 10 -4 15 -28 18 -18 2 -31 0
-29 -4 3 -4 0 -8 -5 -8 -6 0 -11 7 -11 16 0 8 -4 13 -9 10 -5 -4 -21 -2 -35 3
-20 8 -24 7 -19 -5 4 -10 0 -12 -11 -8 -9 3 -16 1 -16 -5 0 -6 5 -11 10 -11 6
0 10 -5 10 -11 0 -5 -4 -7 -10 -4 -5 3 -10 -1 -10 -10 0 -9 -4 -13 -10 -10 -5
3 -7 0 -4 -9 3 -9 -3 -17 -18 -21 -33 -11 -65 -38 -61 -52 5 -15 -12 -24 -32
-17 -9 4 -14 13 -11 21 9 22 -3 36 -20 22 -24 -20 -15 4 22 59 42 63 58 64 19
2 -17 -27 -23 -46 -17 -52 6 -6 12 -6 16 1 4 6 2 11 -4 11 -6 0 -8 5 -5 10 4
6 10 8 14 5 5 -2 30 27 57 66 47 68 48 72 30 85 -11 8 -17 17 -13 20 4 4 37
-13 75 -38 37 -25 77 -48 88 -52 24 -7 69 23 78 52 4 12 28 25 67 36 76 23
158 77 231 153 82 85 87 92 293 401 104 155 190 282 193 282 2 0 -8 -21 -23
-47z m75 -98 c-22 -36 -33 -62 -25 -58 19 7 19 -7 0 -35 -14 -20 -14 -21 0
-16 22 9 18 -7 -10 -41 -34 -42 -38 -47 -57 -82 -28 -49 -21 -52 18 -8 l34 40
-15 -38 c-9 -21 -13 -42 -10 -46 2 -5 -2 -14 -10 -21 -8 -7 -15 -19 -15 -27 0
-19 -87 -147 -91 -134 -5 14 -59 -32 -59 -51 0 -7 -13 -29 -30 -48 -16 -19
-29 -43 -30 -52 0 -10 -4 -18 -9 -18 -19 0 -18 28 4 64 22 37 23 81 1 70 -6
-3 -2 2 9 11 11 8 20 21 20 28 0 7 8 27 18 46 29 53 6 29 -47 -49 -47 -68 -48
-71 -30 -86 11 -9 13 -12 5 -8 -11 5 -13 3 -8 -9 3 -9 1 -19 -5 -23 -7 -5 -8
-2 -3 6 5 8 3 11 -6 8 -8 -3 -13 -10 -12 -15 1 -5 -7 -14 -18 -21 -14 -9 -19
-9 -19 -1 0 8 -5 7 -15 -1 -13 -11 -13 -15 -3 -22 10 -7 10 -9 -2 -5 -8 2 -41
-18 -73 -44 -62 -52 -96 -74 -104 -66 -2 3 4 10 15 16 35 19 106 83 166 150
32 36 146 198 253 359 183 276 251 371 163 227z m194 -17 c-4 -7 -57 -92 -118
-188 -60 -96 -109 -184 -108 -195 1 -22 -16 -47 -28 -40 -5 3 -18 -10 -29 -29
-24 -38 -27 -50 -8 -40 7 5 7 1 -3 -12 -22 -30 -24 -30 -16 -9 5 16 2 15 -14
-5 -11 -14 -18 -31 -15 -38 3 -7 1 -11 -3 -8 -10 6 -61 -76 -96 -154 -14 -30
-37 -98 -51 -150 -15 -52 -28 -101 -30 -107 -6 -18 -40 -16 -56 4 -13 15 -12
15 8 2 30 -18 36 -10 63 96 29 116 60 190 123 295 66 112 377 590 383 590 3 0
2 -6 -2 -12z m-810 -883 c32 -16 80 -49 106 -75 49 -48 101 -135 99 -167 0
-11 -4 -8 -9 9 -20 66 -90 156 -142 184 -28 14 -45 5 -33 -18 4 -7 0 -5 -7 4
-16 19 -45 8 -33 -12 6 -9 -1 -10 -26 -4 -19 5 -68 9 -109 9 -61 -1 -85 -6
-126 -27 -27 -15 -56 -34 -63 -42 -18 -21 -29 -20 -73 7 l-36 23 46 49 c25 28
50 51 54 51 4 1 14 2 21 3 8 1 8 4 -3 12 -12 8 -11 9 5 5 11 -3 40 1 65 9 72
24 192 14 264 -20z m9 -302 l67 -6 0 -51 c-1 -65 -27 -124 -75 -164 -43 -35
-120 -57 -169 -48 -49 9 -119 58 -140 98 l-20 37 40 39 c21 22 59 54 84 71 49
33 82 37 213 24z m94 -259 l34 -26 -58 -45 c-32 -25 -61 -50 -65 -56 -4 -7
-11 -12 -15 -13 -4 0 -21 -6 -38 -13 -16 -7 -40 -10 -52 -8 -12 2 -20 0 -17
-4 3 -5 -5 -9 -18 -9 l-23 1 23 18 c21 18 31 38 14 27 -5 -3 -18 3 -28 13 -11
10 -38 21 -59 25 -47 9 -104 37 -128 63 -13 15 -4 13 43 -10 100 -50 218 -39
302 28 24 18 45 34 47 34 2 1 19 -11 38 -25z"/>
<path d="M4660 6543 c-30 -11 -62 -49 -130 -158 -72 -115 -86 -162 -57 -197
17 -21 82 -65 72 -48 -6 10 -4 12 11 5 10 -4 33 -13 49 -19 29 -11 58 -37 49
-45 -2 -2 -22 8 -45 23 -22 15 -43 25 -46 23 -6 -6 100 -67 117 -67 8 0 10 7
5 23 -4 12 -9 49 -12 83 -8 96 33 176 112 217 17 9 24 16 17 17 -22 0 -71 -39
-103 -83 -16 -22 -29 -34 -29 -27 0 15 108 125 130 132 8 3 12 9 8 13 -12 13
-65 -15 -106 -54 -48 -47 -74 -102 -80 -169 -4 -52 -5 -53 -31 -47 -35 9 -91
52 -91 71 0 8 7 28 15 45 9 16 13 35 9 41 -4 6 -3 8 3 5 6 -4 36 33 69 83 32
50 66 93 76 95 9 3 32 -1 51 -9 20 -8 38 -12 40 -9 3 2 8 -1 13 -8 5 -8 3 -10
-7 -4 -11 6 -11 5 -2 -5 6 -7 22 -14 35 -15 38 -4 39 -5 32 -17 -4 -6 -3 -8 4
-4 6 3 15 -2 21 -11 8 -15 12 -16 22 -5 17 16 6 26 -91 86 -71 44 -96 51 -130
39z"/>
<path d="M4822 6295 c-57 -48 -78 -116 -51 -168 37 -71 105 -99 175 -72 73 28
109 104 85 177 -19 57 -53 81 -119 86 -52 4 -61 1 -90 -23z"/>
<path d="M6120 6580 c0 -107 4 -200 8 -206 17 -27 60 -36 185 -39 172 -5 193
-1 206 38 6 17 11 110 11 213 l0 184 -47 -1 c-48 -1 -49 -3 -3 -13 l25 -5 -3
-153 -3 -153 -172 2 -172 2 0 153 0 153 55 6 55 6 -62 1 c-45 2 -63 -2 -63
-10 0 -9 -4 -8 -10 2 -6 10 -10 -50 -10 -180z"/>
<path d="M6222 6711 c-7 -4 -10 -16 -6 -27 3 -11 2 -15 -3 -9 -9 12 -28 13
-38 4 -9 -10 14 -89 26 -89 6 0 7 5 3 11 -5 8 -1 8 13 0 24 -12 34 -5 26 17
-5 11 -3 13 8 7 12 -8 12 -6 0 8 -12 15 -11 17 3 17 9 0 19 -7 23 -16 3 -8 12
-13 19 -10 8 3 14 1 14 -4 0 -6 7 -10 16 -10 9 0 12 5 8 12 -4 7 -3 8 4 4 7
-4 12 -2 12 5 0 7 3 9 6 6 4 -4 2 -13 -5 -20 -6 -8 -9 -22 -5 -31 7 -19 -12
-22 -23 -2 -4 7 -19 17 -32 21 -19 6 -23 4 -18 -8 4 -11 2 -14 -9 -10 -16 6
-44 -13 -44 -31 0 -6 5 -4 10 4 5 8 10 11 10 5 0 -5 -5 -17 -10 -25 -9 -13
-11 -13 -19 0 -9 13 -11 13 -15 0 -13 -38 -10 -53 9 -56 59 -11 147 -15 163
-9 28 13 42 14 42 4 0 -5 14 -9 30 -9 27 0 30 3 31 33 1 17 2 67 4 110 l3 77
-34 0 c-19 0 -34 3 -34 8 0 4 -13 7 -30 7 -16 1 -30 -4 -30 -10 0 -6 -3 -6 -8
1 -4 6 -22 14 -40 17 -25 5 -34 3 -39 -10 -6 -14 -7 -14 -18 0 -6 9 -16 12
-23 8z"/>
<path d="M6902 6322 c-13 -4 25 -7 85 -7 133 -1 214 -21 303 -77 36 -22 67
-42 69 -45 3 -2 -2 -11 -11 -19 -15 -15 -16 -15 -15 2 3 26 -54 60 -147 90
-66 20 -100 25 -185 25 -74 0 -109 -5 -120 -15 -9 -7 -21 -11 -28 -9 -14 5
-99 -33 -109 -49 -5 -7 -2 -9 7 -4 8 5 -2 -5 -21 -20 -19 -16 -45 -38 -56 -50
-27 -26 -48 -121 -40 -178 3 -28 2 -35 -4 -21 -5 11 -9 47 -9 80 -1 106 65
205 167 251 50 21 56 37 10 20 -125 -45 -212 -153 -225 -280 -9 -83 18 -158
79 -222 53 -57 158 -129 202 -140 14 -3 29 -11 33 -17 12 -20 -71 2 -145 38
-39 20 -76 34 -81 30 -5 -3 -30 -42 -55 -88 -80 -147 -76 -154 -71 118 2 132
1 318 -2 413 l-6 172 -204 0 -203 0 0 -492 0 -493 35 -24 c47 -32 164 -47 270
-35 l80 9 20 41 c15 30 25 39 40 36 59 -10 177 -43 225 -62 73 -29 223 -54
286 -47 63 6 169 55 207 95 16 17 30 45 34 68 3 21 14 50 23 64 29 41 44 101
43 170 -1 109 -45 186 -145 251 l-60 38 47 -1 c68 -1 77 12 142 197 6 17 14
37 17 46 10 23 -59 72 -159 111 -70 28 -94 32 -190 34 -60 2 -120 0 -133 -4z
m-419 -31 c16 -1 17 -30 17 -456 l0 -455 -175 0 -175 0 1 455 0 454 102 3 c90
3 176 2 230 -1z"/>
<path d="M6173 6214 c3 -31 11 -61 18 -68 9 -8 10 -8 4 3 -5 9 -4 12 3 7 16
-10 15 -41 -2 -55 -9 -7 -14 -37 -15 -89 -9 -489 -10 -602 -3 -603 4 -1 18 -4
32 -6 57 -11 254 -12 266 -2 10 8 12 60 9 227 -4 223 -11 312 -26 312 -5 0 -6
7 -3 15 4 8 9 13 13 10 11 -6 13 178 2 194 -5 8 -3 24 6 42 28 56 18 64 -77
64 -47 1 -91 -3 -97 -8 -9 -6 -13 -5 -13 2 0 7 -23 11 -61 11 l-61 0 5 -56z"/>
<path d="M4046 5533 c-30 -26 -45 -29 -47 -10 -1 6 -4 -1 -8 -18 -5 -21 -12
-29 -24 -27 -12 2 -17 -4 -17 -20 0 -19 2 -20 10 -8 6 9 10 10 10 3 0 -11 -27
-43 -36 -43 -3 0 -4 15 -2 33 3 29 0 32 -23 32 -22 -1 -26 3 -24 25 2 26 -11
46 -32 45 -22 0 -26 -15 -24 -77 2 -57 1 -60 -14 -44 -9 9 -16 28 -15 44 3 39
1 52 -8 52 -4 0 -7 -24 -6 -52 1 -29 -5 -65 -13 -80 -12 -25 -12 -28 2 -28 8
0 14 -5 12 -11 -1 -6 12 -12 31 -13 20 0 32 4 32 12 0 16 15 15 34 -3 22 -23
36 -18 43 15 8 43 22 47 19 6 -2 -25 0 -33 10 -29 9 3 12 17 10 36 -4 37 12
67 36 67 25 0 78 49 78 71 0 11 4 18 8 15 4 -2 8 3 8 13 0 24 -18 22 -50 -6z"/>
<path d="M5853 5193 l-113 -4 7 -149 6 -150 -71 0 -72 0 0 -180 c0 -163 2
-181 18 -188 24 -10 105 -65 114 -77 4 -5 8 -54 8 -107 0 -221 55 -323 230
-432 142 -88 340 -104 340 -28 0 10 9 25 20 34 15 14 18 26 15 65 -3 26 -10
102 -16 168 -6 66 -12 121 -14 123 -2 2 -21 -2 -43 -7 -78 -21 -124 28 -102
109 11 42 40 65 93 75 44 8 50 16 67 78 9 34 11 83 7 165 -4 64 -7 136 -7 160
l0 42 -85 0 -85 0 0 155 0 155 -102 -2 c-57 -1 -154 -4 -215 -5z m277 -22 c0
-9 -95 -21 -164 -21 -23 0 -46 -4 -52 -10 -5 -5 -26 -11 -46 -12 -20 -2 -34
-6 -31 -10 2 -5 -2 -8 -10 -8 -24 0 -30 -29 -28 -134 2 -138 3 -136 -74 -136
-58 0 -64 -2 -68 -22 -3 -17 -5 -14 -6 10 l-1 32 65 0 65 0 0 149 0 149 108 6
c59 4 121 8 137 10 67 6 105 6 105 -3z"/>
<path d="M6928 4897 c-26 -8 -66 -26 -89 -41 -43 -29 -58 -25 -59 17 0 16 -16
17 -195 17 l-195 0 0 -484 c0 -279 4 -495 9 -509 13 -35 35 -39 185 -39 184 1
168 -1 156 22 -8 15 -8 20 2 22 7 0 18 2 23 3 6 2 17 3 27 4 14 1 17 25 20
219 4 180 7 222 22 249 16 30 58 53 96 53 25 0 30 -44 30 -292 l0 -218 48 -30
c30 -19 60 -30 85 -30 37 0 50 16 22 26 -38 15 -7 24 83 24 96 0 99 -1 98 -22
-1 -35 41 -38 50 -4 3 14 12 26 20 26 12 0 14 54 14 324 0 178 -4 347 -10 376
-24 126 -97 228 -194 271 -61 26 -182 34 -248 16z"/>
<path d="M2323 3295 c-51 -22 -75 -69 -70 -138 3 -49 8 -63 34 -89 26 -26 42
-32 87 -36 33 -3 68 1 86 8 26 11 30 17 30 53 0 26 6 44 18 53 15 12 8 13 -48
14 -62 0 -64 -1 -42 -16 17 -12 22 -24 20 -47 -3 -28 -7 -32 -36 -35 -60 -6
-100 59 -87 139 10 55 35 79 85 79 33 0 42 -4 52 -25 16 -35 28 -31 28 9 0 26
-5 35 -22 40 -39 10 -101 6 -135 -9z"/>
<path d="M2616 3301 c-3 -5 1 -11 9 -15 22 -8 22 -224 0 -232 -39 -15 -6 -24
89 -24 l104 0 5 33 c6 42 -9 59 -22 24 -9 -24 -16 -27 -56 -27 l-45 0 0 50 c0
45 2 50 22 50 12 0 30 -7 40 -17 17 -15 18 -14 18 33 -1 43 -2 47 -14 32 -7
-10 -25 -18 -40 -18 -24 0 -26 3 -26 45 l0 45 40 0 c29 0 42 -5 50 -20 16 -31
32 -24 28 13 l-3 32 -97 3 c-53 1 -99 -1 -102 -7z"/>
<path d="M2965 3285 c-29 -28 -33 -76 -9 -100 9 -9 38 -27 66 -41 59 -30 70
-50 39 -76 -33 -26 -49 -23 -87 19 l-34 37 0 -41 c0 -46 11 -53 91 -53 59 0
99 29 99 71 0 47 -16 67 -81 100 -49 24 -60 34 -57 52 2 17 11 23 38 25 28 3
39 -2 57 -25 l23 -28 0 36 c0 42 -10 49 -76 49 -34 0 -51 -6 -69 -25z"/>
<path d="M3227 3303 c-11 -10 -8 -61 3 -68 5 -3 15 5 22 19 7 17 19 26 33 26
20 0 22 -6 28 -86 6 -89 1 -144 -14 -144 -5 0 -9 -4 -9 -10 0 -5 25 -10 55
-10 53 0 72 11 40 24 -12 4 -15 27 -15 116 0 107 1 110 22 110 12 0 32 -12 45
-27 l22 -28 1 43 0 42 -113 0 c-63 0 -117 -3 -120 -7z"/>
<path d="M3560 3304 c0 -3 7 -12 15 -20 11 -12 15 -40 15 -120 0 -84 -3 -106
-15 -110 -32 -13 -13 -24 40 -24 30 0 55 5 55 10 0 6 -4 10 -10 10 -6 0 -10
45 -10 114 0 66 4 117 10 121 24 15 6 25 -45 25 -30 0 -55 -3 -55 -6z"/>
<path d="M3843 3295 c-41 -18 -63 -61 -63 -125 0 -89 48 -140 132 -140 55 0
86 17 115 59 45 67 22 170 -46 206 -37 19 -95 19 -138 0z m121 -48 c15 -20 20
-42 20 -82 -2 -87 -48 -135 -99 -101 -47 31 -59 153 -19 197 25 28 71 22 98
-14z"/>
<path d="M4150 3301 c0 -5 7 -11 15 -15 12 -4 15 -27 15 -116 0 -89 -3 -112
-15 -116 -30 -12 -14 -24 30 -24 44 0 60 12 30 24 -12 4 -15 25 -15 98 l0 92
75 -107 c53 -74 82 -107 95 -107 19 0 20 7 20 124 0 73 4 127 10 131 22 13 8
25 -30 25 -45 0 -46 -1 -24 -34 10 -17 14 -43 12 -88 l-3 -63 -65 93 c-64 92
-64 92 -107 92 -24 0 -43 -4 -43 -9z"/>
<path d="M4696 3301 c-3 -5 1 -11 9 -15 22 -8 22 -224 0 -232 -33 -13 -12 -24
45 -24 33 0 60 4 60 10 0 6 -7 10 -15 10 -11 0 -15 11 -15 39 0 38 0 38 47 45
60 8 93 38 93 83 0 49 -15 71 -58 83 -46 12 -159 13 -166 1z"/>
<path d="M5020 3301 c0 -5 7 -11 15 -15 12 -4 15 -26 15 -110 0 -80 -4 -108
-15 -120 -23 -23 -19 -26 40 -26 30 0 55 5 55 10 0 6 -4 10 -10 10 -5 0 -10
23 -10 50 0 64 21 67 51 8 31 -63 48 -78 86 -78 33 0 45 13 19 23 -7 3 -25 26
-40 52 l-26 47 25 30 c40 48 28 96 -29 118 -33 12 -176 13 -176 1z"/>
<path d="M5429 3287 c-42 -29 -59 -60 -59 -115 0 -89 50 -142 132 -142 55 0
86 17 115 59 26 38 31 110 10 151 -19 39 -74 70 -122 70 -27 0 -54 -8 -76 -23z
m120 -26 c44 -44 32 -171 -20 -200 -24 -13 -29 -13 -52 2 -48 31 -60 155 -20
199 21 23 68 23 92 -1z"/>
<path d="M5740 3301 c0 -5 7 -11 15 -15 23 -8 22 -212 -2 -238 -15 -17 -14
-18 45 -18 35 0 62 4 62 10 0 6 -7 10 -15 10 -12 0 -15 13 -15 55 0 50 2 55
22 55 12 0 30 -7 40 -16 16 -16 18 -16 24 0 3 9 3 28 0 42 -6 24 -8 25 -25 10
-10 -9 -27 -16 -39 -16 -20 0 -22 5 -22 50 l0 50 40 0 c29 0 43 -5 52 -20 19
-30 30 -24 26 13 l-3 32 -102 3 c-59 1 -103 -1 -103 -7z"/>
<path d="M6050 3304 c0 -3 7 -13 16 -22 14 -14 15 -31 9 -121 -3 -59 -11 -107
-16 -109 -5 -2 -9 -8 -9 -13 0 -5 47 -9 105 -9 l105 0 0 43 0 42 -23 -28 c-19
-24 -28 -28 -61 -25 -39 3 -39 3 -43 51 -4 46 -3 47 23 47 15 0 36 -7 46 -17
17 -15 18 -14 18 25 0 40 -11 54 -25 32 -3 -5 -19 -10 -36 -10 -28 0 -29 2
-29 45 l0 45 45 0 c34 0 47 -5 55 -20 14 -25 30 -26 30 -1 0 48 -7 51 -111 51
-54 0 -99 -3 -99 -6z"/>
<path d="M6425 3301 c-34 -14 -46 -37 -43 -78 3 -35 7 -40 66 -71 50 -27 62
-38 62 -58 0 -51 -80 -53 -102 -3 -18 40 -28 36 -28 -10 0 -44 12 -51 93 -51
57 0 97 32 97 77 0 40 -11 52 -76 87 -48 25 -59 36 -59 56 0 22 5 25 37 28 31
3 40 -1 54 -24 l18 -27 8 29 c4 16 3 33 -2 38 -12 12 -101 18 -125 7z"/>
<path d="M6680 3301 c0 -6 5 -13 10 -16 6 -4 10 -54 10 -116 0 -88 -3 -111
-15 -115 -8 -4 -12 -10 -9 -15 7 -12 104 -11 104 1 0 6 -4 10 -10 10 -6 0 -10
45 -10 114 0 66 4 117 10 121 23 14 7 25 -40 25 -27 0 -50 -4 -50 -9z"/>
<path d="M6949 3287 c-48 -32 -60 -62 -56 -131 3 -53 7 -62 40 -92 32 -30 43
-34 92 -34 49 0 60 4 92 34 33 30 37 39 40 92 2 36 -1 69 -9 84 -21 39 -75 70
-123 70 -27 0 -54 -8 -76 -23z m133 -48 c48 -93 -16 -222 -86 -175 -31 20 -50
85 -41 142 13 86 90 107 127 33z"/>
<path d="M7270 3301 c0 -6 5 -13 10 -16 6 -4 10 -54 10 -116 0 -88 -3 -111
-15 -115 -28 -11 -15 -24 25 -24 40 0 49 7 30 26 -7 7 -10 47 -8 99 l3 88 73
-107 c51 -73 79 -106 93 -106 18 0 19 8 19 125 0 102 3 127 15 131 26 10 5 24
-36 24 -39 0 -53 -15 -24 -26 11 -5 15 -24 15 -81 0 -41 -4 -72 -9 -69 -4 3
-34 44 -66 91 -55 82 -58 85 -96 85 -21 0 -39 -4 -39 -9z"/>
<path d="M7726 3278 c-7 -18 -30 -77 -50 -130 -21 -54 -42 -98 -47 -98 -5 0
-9 -4 -9 -10 0 -5 18 -10 40 -10 38 0 52 12 31 25 -6 3 -6 17 1 35 9 27 14 30
54 30 38 0 45 -4 59 -30 14 -27 14 -31 0 -36 -32 -13 -13 -24 40 -24 30 0 55
2 55 5 0 3 -6 16 -14 28 -8 12 -34 73 -57 135 -37 101 -44 112 -66 112 -18 0
-27 -8 -37 -32z"/>
<path d="M8000 3301 c0 -6 5 -13 10 -16 6 -4 10 -53 10 -115 0 -62 -4 -111
-10 -115 -30 -18 -2 -25 93 -23 l102 3 3 38 c4 43 -13 50 -30 12 -9 -21 -18
-25 -55 -25 l-43 0 0 110 c0 89 3 112 15 116 32 13 13 24 -40 24 -30 0 -55 -4
-55 -9z"/>
</g>
</svg>
